<svg width="33" height="33" viewBox="0 0 33 33" fill="none" xmlns="http://www.w3.org/2000/svg">
<path d="M16.5 0C7.40909 0 0 7.40909 0 16.5C0 25.5909 7.40909 33 16.5 33C25.5909 33 33 25.5909 33 16.5C33 7.40909 25.5909 0 16.5 0ZM23.6364 21.5455C23.2273 22.5 22.6818 23.3182 22 24.0455C21.3182 24.7727 20.4545 25.3182 19.5455 25.7273C18.5909 26.1364 17.5909 26.3636 16.5455 26.3636C15.4545 26.3636 14.4545 26.1818 13.5 25.7727C12.5455 25.3636 11.7273 24.8182 11 24.0909C10.2727 23.3636 9.72727 22.5455 9.31818 21.5909C8.90909 20.6364 8.68182 19.6364 8.68182 18.5455V6.72727H12.7727V18.5455C12.7727 19.0455 12.8636 19.5455 13.0455 20C13.2273 20.4545 13.5 20.8182 13.8636 21.1818C14.1818 21.5 14.5909 21.7727 15.0455 21.9545C15.5 22.1364 15.9545 22.2273 16.5 22.2273C17 22.2273 17.4545 22.1364 17.9091 21.9545C18.3636 21.7727 18.7273 21.5 19.0455 21.1364C19.3636 20.8182 19.6364 20.4091 19.8182 19.9545C20 19.5 20.0909 19.0455 20.0909 18.5C20.0909 17.5455 19.8182 16.7727 19.2273 16.1364L14.6364 10.7727H20.0909L22.6364 13.7727C23.1818 14.4545 23.5455 15.1818 23.8636 15.9545C24.1364 16.7727 24.2727 17.5909 24.2727 18.5C24.2727 19.5909 24.0455 20.5909 23.6364 21.5455ZM15.0909 18.5455C15.0909 18.1364 15.2273 17.8182 15.5 17.5909C15.7727 17.3182 16.0909 17.2273 16.4545 17.2273C16.8636 17.2273 17.1818 17.3636 17.4545 17.5909C17.7273 17.8636 17.8636 18.1818 17.8636 18.5455C17.8636 18.9091 17.7273 19.2273 17.4545 19.5C17.1818 19.7727 16.8636 19.9091 16.4545 19.9091C16.0909 19.9091 15.7727 19.7727 15.5 19.5C15.2273 19.2273 15.0909 18.9091 15.0909 18.5455Z" fill="#0050B3"/>
</svg>
